<?xml version="1.0" encoding="iso-8859-1"?>
<!-- Uploaded to: SVG Repo, www.svgrepo.com, Generator: SVG Repo Mixer Tools -->
<svg version="1.1" id="Layer_1" xmlns="http://www.w3.org/2000/svg" xmlns:xlink="http://www.w3.org/1999/xlink" 
	 viewBox="0 0 512 512" xml:space="preserve">
<path style="fill:#E0CBB5;" d="M440,112h-16H312h-16H184h-16h-56v288h64h128h128h64V112H440z M424,178.4V136h16v42.4
	c4.8,2.4,8,8,8,13.6s-3.2,11.2-8,13.6V264h-8h-8v-58.4c-4.8-2.4-8-8-8-13.6S419.2,180.8,424,178.4z M440,288c0,4-2.4,7.2-6.4,8
	c-0.8,0-0.8,0-1.6,0c-4,0-8-4-8-8s4-8,8-8S440,284,440,288z M400,296c4,0,8,4,8,8s-4,8-8,8s-8-4-8-8S396,296,400,296z M296,186.4
	V136h16v50.4c4.8,2.4,8,8,8,13.6s-3.2,11.2-8,13.6V264h-8h-8v-50.4c-4.8-2.4-8-8-8-13.6S291.2,188.8,296,186.4z M312,288
	c0,4-2.4,7.2-6.4,8c-0.8,0-0.8,0-1.6,0c-4,0-8-4-8-8s4-8,8-8S312,284,312,288z M272,296c4,0,8,4,8,8s-4,8-8,8s-8-4-8-8
	S268,296,272,296z M168,162.4V136h16v26.4c4.8,2.4,8,8,8,13.6s-3.2,11.2-8,13.6V264h-8h-8v-74.4c-4.8-2.4-8-8-8-13.6
	S163.2,164.8,168,162.4z M184,288c0,4-2.4,7.2-6.4,8c-0.8,0-0.8,0-1.6,0c-4,0-8-4-8-8s4-8,8-8S184,284,184,288z M144,296
	c4,0,8,4,8,8s-4,8-8,8s-8-4-8-8S140,296,144,296z M176,392c-22.4,0-40-17.6-40-40c0-19.2,13.6-35.2,32-39.2V304h8h1.6h6.4v8.8
	c18.4,4,32,20,32,39.2C216,374.4,198.4,392,176,392z M208,312c-4,0-8-4-8-8s4-8,8-8s8,4,8,8S212,312,208,312z M248,237.6V264h-16
	v-26.4c-4.8-2.4-8-8-8-13.6s3.2-11.2,8-13.6V136h16v74.4c4.8,2.4,8,8,8,13.6S252.8,235.2,248,237.6z M304,392c-22.4,0-40-17.6-40-40
	c0-19.2,13.6-35.2,32-39.2V304h8h1.6h6.4v8.8c18.4,4,32,20,32,39.2C344,374.4,326.4,392,304,392z M336,312c-4,0-8-4-8-8s4-8,8-8
	s8,4,8,8S340,312,336,312z M376,181.6V264h-16v-82.4c-4.8-2.4-8-8-8-13.6s3.2-11.2,8-13.6V136h16v18.4c4.8,2.4,8,8,8,13.6
	S380.8,179.2,376,181.6z M432,392c-22.4,0-40-17.6-40-40c0-19.2,13.6-35.2,32-39.2V304h8h1.6h6.4v8.8c18.4,4,32,20,32,39.2
	C472,374.4,454.4,392,432,392z M464,312c-4,0-8-4-8-8s4-8,8-8s8,4,8,8S468,312,464,312z"/>
<g>
	<rect x="112" y="416" style="fill:#B37D4D;" width="384" height="8"/>
	<rect x="112" y="88" style="fill:#B37D4D;" width="384" height="8"/>
</g>
<g>
	<circle style="fill:#42210B;" cx="464" cy="304" r="8"/>
	<path style="fill:#42210B;" d="M416,192c0-5.6,3.2-11.2,8-13.6V136h16v42.4c4.8,2.4,8,8,8,13.6s-3.2,11.2-8,13.6V264h-8h-8v-58.4
		C419.2,203.2,416,197.6,416,192z"/>
	<path style="fill:#42210B;" d="M440,288c0,4-2.4,7.2-6.4,8c-0.8,0-0.8,0-1.6,0c-4,0-8-4-8-8s4-8,8-8S440,284,440,288z"/>
</g>
<path style="fill:#FF9900;" d="M432,376c-13.6,0-24-10.4-24-24c0-10.4,6.4-19.2,16-22.4V344h16v-14.4c9.6,3.2,16,12,16,22.4
	C456,365.6,445.6,376,432,376z"/>
<g>
	<path style="fill:#42210B;" d="M472,352c0,22.4-17.6,40-40,40s-40-17.6-40-40c0-19.2,13.6-35.2,32-39.2V304h8h1.6h6.4v8.8
		C458.4,316.8,472,332.8,472,352z M432,376c13.6,0,24-10.4,24-24c0-10.4-6.4-19.2-16-22.4V344h-16v-14.4c-9.6,3.2-16,12-16,22.4
		C408,365.6,418.4,376,432,376z"/>
	<circle style="fill:#42210B;" cx="400" cy="304" r="8"/>
	<path style="fill:#42210B;" d="M376,181.6V264h-16v-82.4c-4.8-2.4-8-8-8-13.6s3.2-11.2,8-13.6V136h16v18.4c4.8,2.4,8,8,8,13.6
		S380.8,179.2,376,181.6z"/>
	<circle style="fill:#42210B;" cx="336" cy="304" r="8"/>
	<path style="fill:#42210B;" d="M312,186.4c4.8,2.4,8,8,8,13.6s-3.2,11.2-8,13.6V264h-8h-8v-50.4c-4.8-2.4-8-8-8-13.6
		s3.2-11.2,8-13.6V136h16V186.4z"/>
	<path style="fill:#42210B;" d="M312,288c0,4-2.4,7.2-6.4,8c-0.8,0-0.8,0-1.6,0c-4,0-8-4-8-8s4-8,8-8S312,284,312,288z"/>
</g>
<path style="fill:#FF9900;" d="M280,352c0-10.4,6.4-19.2,16-22.4V344h16v-14.4c9.6,3.2,16,12,16,22.4c0,13.6-10.4,24-24,24
	S280,365.6,280,352z"/>
<g>
	<path style="fill:#42210B;" d="M344,352c0,22.4-17.6,40-40,40s-40-17.6-40-40c0-19.2,13.6-35.2,32-39.2V304h8h1.6h6.4v8.8
		C330.4,316.8,344,332.8,344,352z M296,329.6c-9.6,3.2-16,12-16,22.4c0,13.6,10.4,24,24,24s24-10.4,24-24c0-10.4-6.4-19.2-16-22.4
		V344h-16V329.6z"/>
	<circle style="fill:#42210B;" cx="272" cy="304" r="8"/>
	<path style="fill:#42210B;" d="M232,237.6c-4.8-2.4-8-8-8-13.6s3.2-11.2,8-13.6V136h16v74.4c4.8,2.4,8,8,8,13.6s-3.2,11.2-8,13.6
		V264h-16V237.6z"/>
	<circle style="fill:#42210B;" cx="208" cy="304" r="8"/>
	<path style="fill:#42210B;" d="M160,176c0-5.6,3.2-11.2,8-13.6V136h16v26.4c4.8,2.4,8,8,8,13.6s-3.2,11.2-8,13.6V264h-8h-8v-74.4
		C163.2,187.2,160,181.6,160,176z"/>
	<path style="fill:#42210B;" d="M184,288c0,4-2.4,7.2-6.4,8c-0.8,0-0.8,0-1.6,0c-4,0-8-4-8-8s4-8,8-8S184,284,184,288z"/>
</g>
<path style="fill:#FF9900;" d="M152,352c0-10.4,6.4-19.2,16-22.4V344h16v-14.4c9.6,3.2,16,12,16,22.4c0,13.6-11.2,24-24,24
	S152,365.6,152,352z"/>
<g>
	<path style="fill:#42210B;" d="M168,312.8V304h8h1.6h6.4v8.8c18.4,4,32,20,32,39.2c0,22.4-17.6,40-40,40s-40-17.6-40-40
		C136,332.8,149.6,316.8,168,312.8z M168,329.6c-9.6,3.2-16,12-16,22.4c0,13.6,11.2,24,24,24s24-10.4,24-24c0-10.4-6.4-19.2-16-22.4
		V344h-16V329.6z"/>
	<circle style="fill:#42210B;" cx="144" cy="304" r="8"/>
</g>
<rect x="40" y="288" style="fill:#FF9900;" width="32" height="16"/>
<path style="fill:#42210B;" d="M40,304h32v-16H40V304z M88,280v32c0,4-3.2,8-8,8H64v80H48v-80H32c-4,0-8-4-8-8v-32c0-4,4-8,8-8h16
	V112h16v160h16C84.8,272,88,276,88,280z"/>
<g>
	<path style="fill:#B37D4D;" d="M16,88h80v224h-8v-32c0-4-3.2-8-8-8H64V112H48v160H32c-4,0-8,4-8,8v32h-8V88z"/>
	<path style="fill:#B37D4D;" d="M16,424V312h8c0,4,4,8,8,8h16v80h16v-80h16c4.8,0,8-4,8-8h8v112H16z"/>
</g>
<path style="fill:#42210B;" d="M96,424V312V88H16v224v112H96z M112,88v8h384v-8H112z M496,416H112v8h384V416z M184,112h-16h-56v288
	h64h128h128h64V112h-56h-16H312h-16H184z M512,80v352c0,4-4,8-8,8H8c-4.8,0-8-4-8-8V80c0-4.8,3.2-8,8-8h496C508,72,512,75.2,512,80z
	"/>
<path style="fill:#FFF8EF;" d="M462.4,128H145.6c-9.6,0-17.6,8-17.6,17.6v220.8c0,9.6,8,17.6,17.6,17.6h6.4c-9.6-7.2-16-19.2-16-32
	c0-19.2,13.6-35.2,32-39.2V304h8h8v8.8c18.4,4,32,20,32,39.2c0,12.8-6.4,24.8-16,32h80c-9.6-7.2-16-19.2-16-32
	c0-19.2,13.6-35.2,32-39.2V304h8h8v8.8c18.4,4,32,20,32,39.2c0,12.8-6.4,24.8-16,32h80c-9.6-7.2-16-19.2-16-32
	c0-19.2,13.6-35.2,32-39.2V304h8h8v8.8c18.4,4,32,20,32,39.2c0,12.8-6.4,24.8-16,32h6.4c9.6,0,17.6-8,17.6-17.6V145.6
	C480,136,472,128,462.4,128z M144,312c-4,0-8-4-8-8s4-8,8-8s8,4,8,8S148,312,144,312z M176,296c-4,0-8-4-8-8s4-8,8-8s8,4,8,8
	S180,296,176,296z M184,189.6V264h-8h-8v-74.4c-4.8-2.4-8-8-8-13.6s3.2-11.2,8-13.6V136h16v26.4c4.8,2.4,8,8,8,13.6
	S188.8,187.2,184,189.6z M208,312c-4,0-8-4-8-8s4-8,8-8s8,4,8,8S212,312,208,312z M248,237.6V264h-16v-26.4c-4.8-2.4-8-8-8-13.6
	s3.2-11.2,8-13.6V136h16v74.4c4.8,2.4,8,8,8,13.6S252.8,235.2,248,237.6z M272,312c-4,0-8-4-8-8s4-8,8-8s8,4,8,8S276,312,272,312z
	 M304,296c-4,0-8-4-8-8s4-8,8-8s8,4,8,8S308,296,304,296z M312,213.6V264h-8h-8v-50.4c-4.8-2.4-8-8-8-13.6s3.2-11.2,8-13.6V136h16
	v50.4c4.8,2.4,8,8,8,13.6S316.8,211.2,312,213.6z M336,312c-4,0-8-4-8-8s4-8,8-8s8,4,8,8S340,312,336,312z M376,181.6V264h-16v-82.4
	c-4.8-2.4-8-8-8-13.6s3.2-11.2,8-13.6V136h16v18.4c4.8,2.4,8,8,8,13.6S380.8,179.2,376,181.6z M400,312c-4,0-8-4-8-8s4-8,8-8
	s8,4,8,8S404,312,400,312z M432,296c-4,0-8-4-8-8s4-8,8-8s8,4,8,8S436,296,432,296z M440,205.6V264h-8h-8v-58.4c-4.8-2.4-8-8-8-13.6
	s3.2-11.2,8-13.6V136h16v42.4c4.8,2.4,8,8,8,13.6S444.8,203.2,440,205.6z M464,312c-4,0-8-4-8-8s4-8,8-8s8,4,8,8S468,312,464,312z"
	/>
</svg>
